<svg width="238" height="236" viewBox="0 0 238 236" fill="none" xmlns="http://www.w3.org/2000/svg">
<path d="M1.94361 116.108C1.19392 115.302 2.24213 113.127 4.28484 111.25L120.792 4.21016C122.835 2.33344 125.099 1.4658 125.849 2.27222V2.27222C126.598 3.07865 125.55 5.25377 123.507 7.13048L6.9997 114.171C4.95698 116.047 2.6933 116.915 1.94361 116.108V116.108Z" fill="#F2D895"/>
<path d="M34.5217 151.152C33.772 150.346 34.8203 148.171 36.863 146.294L153.371 39.254C155.413 37.3773 157.677 36.5096 158.427 37.316V37.316C159.176 38.1225 158.128 40.2976 156.085 42.1743L39.5778 149.214C37.5351 151.091 35.2714 151.959 34.5217 151.152V151.152Z" fill="#F2D895"/>
<path d="M67.1001 186.196C66.3504 185.39 67.3986 183.215 69.4413 181.338L185.949 74.2982C187.992 72.4215 190.255 71.5538 191.005 72.3602V72.3602C191.755 73.1667 190.707 75.3418 188.664 77.2185L72.1562 184.259C70.1135 186.135 67.8498 187.003 67.1001 186.196V186.196Z" fill="#F2D895"/>
<path d="M99.6787 221.24C98.929 220.434 99.9772 218.258 102.02 216.382L218.528 109.342C220.57 107.465 222.834 106.597 223.584 107.404V107.404C224.333 108.21 223.285 110.385 221.242 112.262L104.735 219.302C102.692 221.179 100.428 222.046 99.6787 221.24V221.24Z" fill="#F2D895"/>
<path d="M10.0879 124.87C9.33821 124.063 10.3864 121.888 12.4291 120.011L128.937 12.9713C130.979 11.0946 133.243 10.2269 133.993 11.0333V11.0333C134.743 11.8398 133.694 14.0149 131.652 15.8916L15.144 122.932C13.1013 124.808 10.8376 125.676 10.0879 124.87V124.87Z" fill="#F2D895"/>
<path d="M42.6665 159.913C41.9168 159.107 42.965 156.932 45.0077 155.055L161.515 48.0151C163.558 46.1384 165.822 45.2707 166.571 46.0772V46.0772C167.321 46.8836 166.273 49.0587 164.23 50.9354L47.7226 157.975C45.6799 159.852 43.4162 160.72 42.6665 159.913V159.913Z" fill="#F2D895"/>
<path d="M75.2446 194.957C74.4949 194.151 75.5432 191.976 77.5859 190.099L194.094 83.059C196.136 81.1823 198.4 80.3147 199.15 81.1211V81.1211C199.899 81.9275 198.851 84.1026 196.808 85.9794L80.3007 193.019C78.258 194.896 75.9943 195.764 75.2446 194.957V194.957Z" fill="#F2D895"/>
<path d="M107.823 230.001C107.074 229.195 108.122 227.02 110.164 225.143L226.672 118.103C228.715 116.226 230.979 115.358 231.728 116.165V116.165C232.478 116.971 231.43 119.146 229.387 121.023L112.879 228.063C110.837 229.94 108.573 230.808 107.823 230.001V230.001Z" fill="#F2D895"/>
<path d="M6.01588 120.489C5.26619 119.683 6.31439 117.507 8.3571 115.631L124.865 8.59065C126.907 6.71394 129.171 5.84629 129.921 6.65272V6.65272C130.671 7.45914 129.622 9.63426 127.58 11.511L11.072 118.551C9.02925 120.428 6.76557 121.295 6.01588 120.489V120.489Z" fill="#F2D895"/>
<path d="M38.5942 155.533C37.8446 154.726 38.8928 152.551 40.9355 150.675L157.443 43.6346C159.486 41.7579 161.75 40.8902 162.499 41.6967V41.6967C163.249 42.5031 162.201 44.6782 160.158 46.5549L43.6503 153.595C41.6076 155.472 39.3439 156.339 38.5942 155.533V155.533Z" fill="#F2D895"/>
<path d="M71.1724 190.577C70.4227 189.77 71.4709 187.595 73.5136 185.719L190.021 78.6785C192.064 76.8018 194.328 75.9342 195.077 76.7406V76.7406C195.827 77.547 194.779 79.7222 192.736 81.5989L76.2285 188.639C74.1857 190.516 71.9221 191.383 71.1724 190.577V190.577Z" fill="#F2D895"/>
<path d="M103.751 225.621C103.001 224.814 104.049 222.639 106.092 220.763L222.6 113.722C224.643 111.846 226.906 110.978 227.656 111.785V111.785C228.406 112.591 227.357 114.766 225.315 116.643L108.807 223.683C106.764 225.56 104.501 226.427 103.751 225.621V225.621Z" fill="#F2D895"/>
<path d="M14.1604 129.25C13.4107 128.444 14.4589 126.269 16.5016 124.392L133.009 17.3518C135.052 15.475 137.316 14.6074 138.065 15.4138V15.4138C138.815 16.2203 137.767 18.3954 135.724 20.2721L19.2165 127.312C17.1738 129.189 14.9101 130.057 14.1604 129.25V129.25Z" fill="#F2D895"/>
<path d="M46.7388 164.294C45.9891 163.487 47.0373 161.312 49.08 159.436L165.588 52.3955C167.63 50.5187 169.894 49.6511 170.644 50.4575V50.4575C171.393 51.264 170.345 53.4391 168.303 55.3158L51.7949 162.356C49.7522 164.233 47.4885 165.1 46.7388 164.294V164.294Z" fill="#F2D895"/>
<path d="M79.3171 199.338C78.5675 198.532 79.6157 196.356 81.6584 194.48L198.166 87.4397C200.209 85.5629 202.472 84.6953 203.222 85.5017V85.5017C203.972 86.3081 202.924 88.4833 200.881 90.36L84.3732 197.4C82.3305 199.277 80.0668 200.144 79.3171 199.338V199.338Z" fill="#F2D895"/>
<path d="M111.896 234.382C111.146 233.575 112.194 231.4 114.237 229.523L230.744 122.483C232.787 120.607 235.051 119.739 235.8 120.545V120.545C236.55 121.352 235.502 123.527 233.459 125.404L116.952 232.444C114.909 234.32 112.645 235.188 111.896 234.382V234.382Z" fill="#F2D895"/>
<path d="M18.2327 133.631C17.483 132.824 18.5312 130.649 20.5739 128.772L137.082 21.7323C139.124 19.8555 141.388 18.9879 142.138 19.7943V19.7943C142.887 20.6007 141.839 22.7759 139.796 24.6526L23.2888 131.693C21.246 133.569 18.9824 134.437 18.2327 133.631V133.631Z" fill="#F2D895"/>
<path d="M50.8108 168.675C50.0611 167.868 51.1093 165.693 53.152 163.816L169.66 56.7762C171.702 54.8995 173.966 54.0318 174.716 54.8383V54.8383C175.465 55.6447 174.417 57.8198 172.375 59.6965L55.8669 166.737C53.8242 168.613 51.5605 169.481 50.8108 168.675V168.675Z" fill="#F2D895"/>
<path d="M83.3894 203.718C82.6397 202.912 83.6879 200.737 85.7306 198.86L202.238 91.82C204.281 89.9433 206.545 89.0757 207.294 89.8821V89.8821C208.044 90.6885 206.996 92.8636 204.953 94.7403L88.4455 201.78C86.4028 203.657 84.1391 204.525 83.3894 203.718V203.718Z" fill="#F2D895"/>
<path d="M26.3772 142.392C25.6275 141.585 26.6757 139.41 28.7184 137.533L145.226 30.4932C147.269 28.6165 149.532 27.7489 150.282 28.5553V28.5553C151.032 29.3617 149.984 31.5368 147.941 33.4136L31.4333 140.454C29.3906 142.33 27.1269 143.198 26.3772 142.392V142.392Z" fill="#F2D895"/>
<path d="M58.9558 177.435C58.2061 176.629 59.2543 174.453 61.297 172.577L177.805 65.5367C179.847 63.66 182.111 62.7923 182.861 63.5988V63.5988C183.61 64.4052 182.562 66.5803 180.52 68.457L64.0119 175.497C61.9692 177.374 59.7055 178.241 58.9558 177.435V177.435Z" fill="#F2D895"/>
<path d="M91.5337 212.479C90.784 211.673 91.8322 209.498 93.8749 207.621L210.383 100.581C212.425 98.7044 214.689 97.8368 215.439 98.6432V98.6432C216.188 99.4496 215.14 101.625 213.097 103.501L96.5898 210.542C94.5471 212.418 92.2834 213.286 91.5337 212.479V212.479Z" fill="#F2D895"/>
<path d="M22.3049 138.011C21.5553 137.205 22.6035 135.03 24.6462 133.153L141.154 26.1127C143.197 24.236 145.46 23.3684 146.21 24.1748V24.1748C146.96 24.9812 145.911 27.1564 143.869 29.0331L27.361 136.073C25.3183 137.95 23.0546 138.817 22.3049 138.011V138.011Z" fill="#F2D895"/>
<path d="M54.8831 173.055C54.1334 172.249 55.1816 170.073 57.2243 168.197L173.732 61.1567C175.775 59.28 178.038 58.4123 178.788 59.2188V59.2188C179.538 60.0252 178.49 62.2003 176.447 64.077L59.9391 171.117C57.8964 172.994 55.6328 173.861 54.8831 173.055V173.055Z" fill="#F2D895"/>
<path d="M87.4617 208.099C86.712 207.292 87.7602 205.117 89.8029 203.24L206.311 96.2004C208.353 94.3237 210.617 93.456 211.367 94.2625V94.2625C212.116 95.0689 211.068 97.244 209.025 99.1207L92.5178 206.161C90.4751 208.037 88.2114 208.905 87.4617 208.099V208.099Z" fill="#F2D895"/>
<path d="M30.4495 146.772C29.6998 145.966 30.748 143.79 32.7907 141.914L149.298 34.8736C151.341 32.9969 153.605 32.1293 154.354 32.9357V32.9357C155.104 33.7421 154.056 35.9172 152.013 37.7939L35.5056 144.834C33.4628 146.711 31.1992 147.578 30.4495 146.772V146.772Z" fill="#F2D895"/>
<path d="M63.0281 181.816C62.2784 181.009 63.3266 178.834 65.3693 176.958L181.877 69.9176C183.92 68.0408 186.183 67.1732 186.933 67.9796V67.9796C187.683 68.786 186.635 70.9612 184.592 72.8379L68.0842 179.878C66.0415 181.755 63.7778 182.622 63.0281 181.816V181.816Z" fill="#F2D895"/>
<path d="M95.606 216.86C94.8563 216.053 95.9045 213.878 97.9472 212.002L214.455 104.962C216.498 103.085 218.761 102.217 219.511 103.024V103.024C220.261 103.83 219.212 106.005 217.17 107.882L100.662 214.922C98.6193 216.799 96.3557 217.666 95.606 216.86V216.86Z" fill="#F2D895"/>
</svg>
