<svg width="739" height="343" viewBox="0 0 739 343" fill="none" xmlns="http://www.w3.org/2000/svg">
  <g filter="url(#filter0_f_216_20)">
  <rect x="5" y="5" width="729" height="333" fill="url(#paint0_linear_216_20)" style="mix-blend-mode:saturation"/>
  <rect x="114.112" y="30" width="11.9616" height="21.2651" fill="#6E9CE0"/>
  <rect x="131.389" y="30" width="11.9616" height="21.2651" fill="#6E9CE0"/>
  <rect x="62.2779" y="30" width="11.9616" height="21.2651" fill="#6E9CE0"/>
  <rect x="79.5558" y="32.1265" width="11.9616" height="19.1386" fill="#6E9CE0"/>
  <rect x="96.8336" y="35.7151" width="11.9616" height="15.5501" fill="#6E9CE0"/>
  <rect x="45" y="30" width="11.9616" height="21.2651" fill="#6E9CE0"/>
  <rect x="233.728" y="32.6582" width="11.9616" height="18.6069" fill="#6E9CE0"/>
  <rect x="251.005" y="35.3163" width="11.9616" height="15.9488" fill="#6E9CE0"/>
  <rect x="181.894" y="37.9745" width="11.9616" height="13.2907" fill="#6E9CE0"/>
  <rect x="199.172" y="32.1265" width="11.9616" height="19.1386" fill="#6E9CE0"/>
  <rect x="216.45" y="35.7151" width="11.9616" height="15.5501" fill="#6E9CE0"/>
  <rect x="164.616" y="32.6582" width="11.9616" height="18.6069" fill="#6E9CE0"/>
  <rect x="349.357" y="33.1898" width="11.9616" height="18.6069" fill="#535153"/>
  <rect x="366.634" y="35.848" width="11.9616" height="15.9488" fill="#535153"/>
  <rect x="297.523" y="38.5061" width="11.9616" height="13.2907" fill="#535153"/>
  <rect x="314.801" y="32.6582" width="11.9616" height="19.1386" fill="#535153"/>
  <rect x="332.079" y="36.2467" width="11.9616" height="15.5501" fill="#535153"/>
  <rect x="280.245" y="33.1898" width="11.9616" height="18.6069" fill="#535153"/>
  <rect x="165.945" y="65.8849" width="11.9616" height="21.2651" fill="#6E9CE0"/>
  <rect x="183.223" y="65.8849" width="11.9616" height="21.2651" fill="#6E9CE0"/>
  <rect x="114.112" y="65.8849" width="11.9616" height="21.2651" fill="#6E9CE0"/>
  <rect x="131.389" y="68.0114" width="11.9616" height="19.1386" fill="#6E9CE0"/>
  <rect x="148.667" y="71.5997" width="11.9616" height="15.5501" fill="#6E9CE0"/>
  <rect x="96.8336" y="65.8849" width="11.9616" height="21.2651" fill="#6E9CE0"/>
  <rect x="285.561" y="69.8721" width="11.9616" height="17.2779" fill="#4D7F9D"/>
  <rect x="302.839" y="72.5302" width="11.9616" height="14.6197" fill="#4D7F9D"/>
  <rect x="233.728" y="71.201" width="11.9616" height="15.9488" fill="#4D7F9D"/>
  <rect x="251.005" y="69.8721" width="11.9616" height="17.2779" fill="#4D7F9D"/>
  <rect x="268.283" y="71.5997" width="11.9616" height="15.5501" fill="#4D7F9D"/>
  <rect x="216.45" y="72.5302" width="11.9616" height="14.6197" fill="#4D7F9D"/>
  <rect x="401.19" y="71.201" width="11.9616" height="15.9488" fill="#878EA9"/>
  <rect x="418.468" y="69.8721" width="11.9616" height="17.2779" fill="#878EA9"/>
  <rect x="349.356" y="77.8464" width="11.9616" height="9.30347" fill="#878EA9"/>
  <rect x="366.634" y="72.5302" width="11.9616" height="14.6197" fill="#878EA9"/>
  <rect x="383.912" y="69.8721" width="11.9616" height="17.2779" fill="#878EA9"/>
  <rect x="332.079" y="71.201" width="11.9616" height="15.9488" fill="#878EA9"/>
  <rect x="200.501" y="137.654" width="11.9616" height="21.2651" fill="#6E9CE0"/>
  <rect x="217.779" y="137.654" width="11.9616" height="21.2651" fill="#6E9CE0"/>
  <rect x="148.667" y="137.654" width="11.9616" height="21.2651" fill="#6E9CE0"/>
  <rect x="165.945" y="139.781" width="11.9616" height="19.1386" fill="#6E9CE0"/>
  <rect x="183.223" y="143.369" width="11.9616" height="15.5501" fill="#6E9CE0"/>
  <rect x="131.389" y="137.655" width="11.9616" height="21.2651" fill="#6E9CE0"/>
  <rect x="320.117" y="141.642" width="11.9616" height="17.2779" fill="#4D7F9D"/>
  <rect x="337.395" y="144.3" width="11.9616" height="14.6197" fill="#4D7F9D"/>
  <rect x="268.283" y="142.971" width="11.9616" height="15.9488" fill="#4D7F9D"/>
  <rect x="285.561" y="141.642" width="11.9616" height="17.2779" fill="#4D7F9D"/>
  <rect x="302.839" y="143.369" width="11.9616" height="15.5501" fill="#4D7F9D"/>
  <rect x="251.005" y="144.3" width="11.9616" height="14.6197" fill="#4D7F9D"/>
  <rect x="435.746" y="142.971" width="11.9616" height="15.9488" fill="#878EA9"/>
  <rect x="453.024" y="141.642" width="11.9616" height="17.2779" fill="#878EA9"/>
  <rect x="383.912" y="149.616" width="11.9616" height="9.30347" fill="#878EA9"/>
  <rect x="401.19" y="144.3" width="11.9616" height="14.6197" fill="#878EA9"/>
  <rect x="418.468" y="141.642" width="11.9616" height="17.2779" fill="#878EA9"/>
  <rect x="366.634" y="142.971" width="11.9616" height="15.9488" fill="#878EA9"/>
  <rect x="270.941" y="177.527" width="11.9616" height="21.2651" fill="#6E9CE0"/>
  <rect x="228.411" y="177.527" width="11.9616" height="19.1386" fill="#6E9CE0"/>
  <rect x="248.347" y="176.198" width="11.9616" height="21.2651" fill="#6E9CE0"/>
  <rect x="131.389" y="178.856" width="11.9616" height="15.9488" fill="#4D7F9D"/>
  <rect x="173.92" y="178.856" width="11.9616" height="17.2779" fill="#4D7F9D"/>
  <rect x="195.185" y="178.856" width="11.9616" height="15.5501" fill="#4D7F9D"/>
  <rect x="152.654" y="180.185" width="11.9616" height="14.6197" fill="#4D7F9D"/>
  <rect x="373.28" y="180.185" width="11.9616" height="15.9488" fill="#878EA9"/>
  <rect x="390.558" y="186.83" width="11.9616" height="9.30347" fill="#878EA9"/>
  <rect x="321.446" y="182.843" width="11.9616" height="13.2907" fill="#878EA9"/>
  <rect x="338.724" y="181.514" width="11.9616" height="14.6197" fill="#878EA9"/>
  <rect x="356.002" y="182.843" width="11.9616" height="13.2907" fill="#878EA9"/>
  <rect x="304.168" y="186.83" width="11.9616" height="9.30347" fill="#878EA9"/>
  <rect x="435.746" y="177.527" width="11.9616" height="21.2651" fill="#6E9CE0"/>
  <rect x="453.024" y="177.527" width="11.9616" height="21.2651" fill="#6E9CE0"/>
  <rect x="418.468" y="183.241" width="11.9616" height="15.5501" fill="#6E9CE0"/>
  <rect x="217.779" y="206.766" width="11.9616" height="21.2651" fill="#6E9CE0"/>
  <rect x="200.501" y="205.437" width="11.9616" height="21.2651" fill="#6E9CE0"/>
  <rect x="183.223" y="205.437" width="11.9616" height="21.2651" fill="#6E9CE0"/>
  <rect x="165.945" y="205.437" width="11.9616" height="21.2651" fill="#6E9CE0"/>
  <rect x="414.481" y="212.082" width="11.9616" height="14.6197" fill="#4D7F9D"/>
  <rect x="393.216" y="212.082" width="11.9616" height="15.5501" fill="#4D7F9D"/>
  <rect x="371.951" y="212.082" width="11.9616" height="14.6197" fill="#4D7F9D"/>
  <rect x="322.775" y="210.753" width="11.9616" height="15.9488" fill="#878EA9"/>
  <rect x="340.053" y="209.424" width="11.9616" height="17.2779" fill="#878EA9"/>
  <rect x="270.941" y="217.398" width="11.9616" height="9.30347" fill="#878EA9"/>
  <rect x="288.219" y="212.082" width="11.9616" height="14.6197" fill="#878EA9"/>
  <rect x="305.497" y="209.424" width="11.9616" height="17.2779" fill="#878EA9"/>
  <rect x="253.664" y="210.753" width="11.9616" height="15.9488" fill="#878EA9"/>
  <rect x="168.603" y="108.415" width="11.9616" height="17.2779" fill="#6E9CE0"/>
  <rect x="149.996" y="109.744" width="11.9616" height="14.6197" fill="#6E9CE0"/>
  <rect x="132.718" y="108.415" width="11.9616" height="15.9488" fill="#6E9CE0"/>
  <rect x="348.027" y="111.073" width="11.9616" height="14.6197" fill="#4D7F9D"/>
  <rect x="326.762" y="111.073" width="11.9616" height="15.5501" fill="#4D7F9D"/>
  <rect x="305.497" y="111.073" width="11.9616" height="14.6197" fill="#4D7F9D"/>
  <rect x="272.271" y="115.06" width="11.9616" height="9.30347" fill="#878EA9"/>
  <rect x="217.779" y="115.06" width="11.9616" height="9.30347" fill="#878EA9"/>
  <rect x="235.057" y="109.744" width="11.9616" height="14.6197" fill="#878EA9"/>
  <rect x="252.335" y="109.744" width="11.9616" height="14.6197" fill="#878EA9"/>
  <rect x="200.501" y="108.415" width="11.9616" height="15.9488" fill="#878EA9"/>
  <rect x="233.728" y="247.967" width="11.9616" height="14.6197" fill="#6E9CE0" fill-opacity="0.5"/>
  <rect x="216.45" y="241.322" width="11.9616" height="21.2651" fill="#6E9CE0" fill-opacity="0.5"/>
  <rect x="199.172" y="241.322" width="11.9616" height="21.2651" fill="#6E9CE0" fill-opacity="0.5"/>
  <rect x="278.916" y="243.98" width="11.9616" height="17.2779" fill="#4D7F9D" fill-opacity="0.5"/>
  <rect x="296.194" y="246.638" width="11.9616" height="14.6197" fill="#4D7F9D" fill-opacity="0.5"/>
  <rect x="313.472" y="246.638" width="11.9616" height="14.6197" fill="#4D7F9D" fill-opacity="0.5"/>
  <rect x="332.079" y="246.638" width="11.9616" height="14.6197" fill="#4D7F9D" fill-opacity="0.5"/>
  <rect x="261.638" y="245.708" width="11.9616" height="15.5501" fill="#4D7F9D" fill-opacity="0.5"/>
  <rect x="402.519" y="246.638" width="11.9616" height="15.9488" fill="#878EA9" fill-opacity="0.5"/>
  <rect x="382.583" y="246.638" width="11.9616" height="14.6197" fill="#878EA9" fill-opacity="0.5"/>
  <rect x="362.647" y="246.638" width="11.9616" height="15.9488" fill="#878EA9" fill-opacity="0.5"/>
  <rect x="438.404" y="247.435" width="11.9616" height="14.6197" fill="#535153" fill-opacity="0.5"/>
  <rect x="455.682" y="248.765" width="11.9616" height="13.2907" fill="#535153" fill-opacity="0.5"/>
  <rect x="472.96" y="247.036" width="11.9616" height="15.5501" fill="#535153" fill-opacity="0.5"/>
  </g>
  <defs>
  <filter id="filter0_f_216_20" x="0" y="0" width="739" height="343" filterUnits="userSpaceOnUse" color-interpolation-filters="sRGB">
  <feFlood flood-opacity="0" result="BackgroundImageFix"/>
  <feBlend mode="normal" in="SourceGraphic" in2="BackgroundImageFix" result="shape"/>
  <feGaussianBlur stdDeviation="2.5" result="effect1_foregroundBlur_216_20"/>
  </filter>
  <linearGradient id="paint0_linear_216_20" x1="368.834" y1="5" x2="368.834" y2="402.313" gradientUnits="userSpaceOnUse">
  <stop stop-color="#E7E6DF"/>
  <stop offset="0.799303" stop-color="#4D7F9D"/>
  </linearGradient>
  </defs>
  </svg>
  