<svg width="393" height="83" viewBox="0 0 393 83" fill="none" xmlns="http://www.w3.org/2000/svg">
  <path d="M39.9324 36.9779C39.1678 37.3099 38.3432 37.4813 37.5097 37.4813C36.6761 37.4813 35.8515 37.3099 35.0869 36.9779L5.70514 23.3695C5.22802 23.1289 4.82707 22.7605 4.54693 22.3055C4.2668 21.8504 4.11847 21.3265 4.11847 20.7922C4.11847 20.2578 4.2668 19.7339 4.54693 19.2789C4.82707 18.8238 5.22802 18.4555 5.70514 18.2148L35.0869 4.50331C35.8515 4.17132 36.6761 4 37.5097 4C38.3432 4 39.1678 4.17132 39.9324 4.50331L69.3142 18.1117C69.7913 18.3524 70.1922 18.7207 70.4724 19.1758C70.7525 19.6308 70.9008 20.1547 70.9008 20.6891C70.9008 21.2234 70.7525 21.7473 70.4724 22.2024C70.1922 22.6574 69.7913 23.0258 69.3142 23.2664L39.9324 36.9779Z" fill="#9EBED8" stroke="#4D7F9D" stroke-width="8" stroke-linecap="round" stroke-linejoin="round"/>
  <path d="M71.0111 39.2977L39.5674 53.7824C38.8959 54.0888 38.1664 54.2473 37.4282 54.2473C36.6901 54.2473 35.9606 54.0888 35.289 53.7824L4 39.2977" stroke="#4D7F9D" stroke-width="8" stroke-linecap="round" stroke-linejoin="round"/>
  <path d="M71.0111 56.0504L39.5674 70.5351C38.8959 70.8414 38.1664 71 37.4282 71C36.6901 71 35.9606 70.8414 35.289 70.5351L4 56.0504" stroke="#4D7F9D" stroke-width="8" stroke-linecap="round" stroke-linejoin="round"/>
  <path d="M111.75 41.5C111.75 38.0667 112.517 35 114.05 32.3C115.617 29.5667 117.733 27.45 120.4 25.95C123.1 24.4167 126.117 23.65 129.45 23.65C133.35 23.65 136.767 24.65 139.7 26.65C142.633 28.65 144.683 31.4167 145.85 34.95H137.8C137 33.2833 135.867 32.0333 134.4 31.2C132.967 30.3667 131.3 29.95 129.4 29.95C127.367 29.95 125.55 30.4333 123.95 31.4C122.383 32.3333 121.15 33.6667 120.25 35.4C119.383 37.1333 118.95 39.1667 118.95 41.5C118.95 43.8 119.383 45.8333 120.25 47.6C121.15 49.3333 122.383 50.6833 123.95 51.65C125.55 52.5833 127.367 53.05 129.4 53.05C131.3 53.05 132.967 52.6333 134.4 51.8C135.867 50.9333 137 49.6667 137.8 48H145.85C144.683 51.5667 142.633 54.35 139.7 56.35C136.8 58.3167 133.383 59.3 129.45 59.3C126.117 59.3 123.1 58.55 120.4 57.05C117.733 55.5167 115.617 53.4 114.05 50.7C112.517 48 111.75 44.9333 111.75 41.5ZM164.129 59.45C161.462 59.45 159.062 58.8667 156.929 57.7C154.796 56.5 153.112 54.8167 151.879 52.65C150.679 50.4833 150.079 47.9833 150.079 45.15C150.079 42.3167 150.696 39.8167 151.929 37.65C153.196 35.4833 154.912 33.8167 157.079 32.65C159.246 31.45 161.662 30.85 164.329 30.85C166.996 30.85 169.412 31.45 171.579 32.65C173.746 33.8167 175.446 35.4833 176.679 37.65C177.946 39.8167 178.579 42.3167 178.579 45.15C178.579 47.9833 177.929 50.4833 176.629 52.65C175.362 54.8167 173.629 56.5 171.429 57.7C169.262 58.8667 166.829 59.45 164.129 59.45ZM164.129 53.35C165.396 53.35 166.579 53.05 167.679 52.45C168.812 51.8167 169.712 50.8833 170.379 49.65C171.046 48.4167 171.379 46.9167 171.379 45.15C171.379 42.5167 170.679 40.5 169.279 39.1C167.912 37.6667 166.229 36.95 164.229 36.95C162.229 36.95 160.546 37.6667 159.179 39.1C157.846 40.5 157.179 42.5167 157.179 45.15C157.179 47.7833 157.829 49.8167 159.129 51.25C160.462 52.65 162.129 53.35 164.129 53.35ZM181.914 45.05C181.914 42.25 182.464 39.7667 183.564 37.6C184.697 35.4333 186.23 33.7667 188.164 32.6C190.097 31.4333 192.247 30.85 194.614 30.85C196.414 30.85 198.13 31.25 199.764 32.05C201.397 32.8167 202.697 33.85 203.664 35.15V22H210.764V59H203.664V54.9C202.797 56.2667 201.58 57.3667 200.014 58.2C198.447 59.0333 196.63 59.45 194.564 59.45C192.23 59.45 190.097 58.85 188.164 57.65C186.23 56.45 184.697 54.7667 183.564 52.6C182.464 50.4 181.914 47.8833 181.914 45.05ZM203.714 45.15C203.714 43.45 203.38 42 202.714 40.8C202.047 39.5667 201.147 38.6333 200.014 38C198.88 37.3333 197.664 37 196.364 37C195.064 37 193.864 37.3167 192.764 37.95C191.664 38.5833 190.764 39.5167 190.064 40.75C189.397 41.95 189.064 43.3833 189.064 45.05C189.064 46.7167 189.397 48.1833 190.064 49.45C190.764 50.6833 191.664 51.6333 192.764 52.3C193.897 52.9667 195.097 53.3 196.364 53.3C197.664 53.3 198.88 52.9833 200.014 52.35C201.147 51.6833 202.047 50.75 202.714 49.55C203.38 48.3167 203.714 46.85 203.714 45.15ZM243.35 44.55C243.35 45.55 243.284 46.45 243.15 47.25H222.9C223.067 49.25 223.767 50.8167 225 51.95C226.234 53.0833 227.75 53.65 229.55 53.65C232.15 53.65 234 52.5333 235.1 50.3H242.65C241.85 52.9667 240.317 55.1667 238.05 56.9C235.784 58.6 233 59.45 229.7 59.45C227.034 59.45 224.634 58.8667 222.5 57.7C220.4 56.5 218.75 54.8167 217.55 52.65C216.384 50.4833 215.8 47.9833 215.8 45.15C215.8 42.2833 216.384 39.7667 217.55 37.6C218.717 35.4333 220.35 33.7667 222.45 32.6C224.55 31.4333 226.967 30.85 229.7 30.85C232.334 30.85 234.684 31.4167 236.75 32.55C238.85 33.6833 240.467 35.3 241.6 37.4C242.767 39.4667 243.35 41.85 243.35 44.55ZM236.1 42.55C236.067 40.75 235.417 39.3167 234.15 38.25C232.884 37.15 231.334 36.6 229.5 36.6C227.767 36.6 226.3 37.1333 225.1 38.2C223.934 39.2333 223.217 40.6833 222.95 42.55H236.1ZM272.424 59.35C269.99 59.35 267.79 58.9333 265.824 58.1C263.89 57.2667 262.357 56.0667 261.224 54.5C260.09 52.9333 259.507 51.0833 259.474 48.95H266.974C267.074 50.3833 267.574 51.5167 268.474 52.35C269.407 53.1833 270.674 53.6 272.274 53.6C273.907 53.6 275.19 53.2167 276.124 52.45C277.057 51.65 277.524 50.6167 277.524 49.35C277.524 48.3167 277.207 47.4667 276.574 46.8C275.94 46.1333 275.14 45.6167 274.174 45.25C273.24 44.85 271.94 44.4167 270.274 43.95C268.007 43.2833 266.157 42.6333 264.724 42C263.324 41.3333 262.107 40.35 261.074 39.05C260.074 37.7167 259.574 35.95 259.574 33.75C259.574 31.6833 260.09 29.8833 261.124 28.35C262.157 26.8167 263.607 25.65 265.474 24.85C267.34 24.0167 269.474 23.6 271.874 23.6C275.474 23.6 278.39 24.4833 280.624 26.25C282.89 27.9833 284.14 30.4167 284.374 33.55H276.674C276.607 32.35 276.09 31.3667 275.124 30.6C274.19 29.8 272.94 29.4 271.374 29.4C270.007 29.4 268.907 29.75 268.074 30.45C267.274 31.15 266.874 32.1667 266.874 33.5C266.874 34.4333 267.174 35.2167 267.774 35.85C268.407 36.45 269.174 36.95 270.074 37.35C271.007 37.7167 272.307 38.15 273.974 38.65C276.24 39.3167 278.09 39.9833 279.524 40.65C280.957 41.3167 282.19 42.3167 283.224 43.65C284.257 44.9833 284.774 46.7333 284.774 48.9C284.774 50.7667 284.29 52.5 283.324 54.1C282.357 55.7 280.94 56.9833 279.074 57.95C277.207 58.8833 274.99 59.35 272.424 59.35ZM307.243 59L297.843 47.2V59H290.843V22H297.843V43.05L307.143 31.3H316.243L304.043 45.2L316.343 59H307.243ZM323.592 28C322.358 28 321.325 27.6167 320.492 26.85C319.692 26.05 319.292 25.0667 319.292 23.9C319.292 22.7333 319.692 21.7667 320.492 21C321.325 20.2 322.358 19.8 323.592 19.8C324.825 19.8 325.842 20.2 326.642 21C327.475 21.7667 327.892 22.7333 327.892 23.9C327.892 25.0667 327.475 26.05 326.642 26.85C325.842 27.6167 324.825 28 323.592 28ZM327.042 31.3V59H320.042V31.3H327.042ZM340.958 22V59H333.958V22H340.958ZM354.874 22V59H347.874V22H354.874ZM372.39 59.45C370.123 59.45 368.09 59.05 366.29 58.25C364.49 57.4167 363.057 56.3 361.99 54.9C360.957 53.5 360.39 51.95 360.29 50.25H367.34C367.473 51.3167 367.99 52.2 368.89 52.9C369.823 53.6 370.973 53.95 372.34 53.95C373.673 53.95 374.707 53.6833 375.44 53.15C376.207 52.6167 376.59 51.9333 376.59 51.1C376.59 50.2 376.123 49.5333 375.19 49.1C374.29 48.6333 372.84 48.1333 370.84 47.6C368.773 47.1 367.073 46.5833 365.74 46.05C364.44 45.5167 363.307 44.7 362.34 43.6C361.407 42.5 360.94 41.0167 360.94 39.15C360.94 37.6167 361.373 36.2167 362.24 34.95C363.14 33.6833 364.407 32.6833 366.04 31.95C367.707 31.2167 369.657 30.85 371.89 30.85C375.19 30.85 377.823 31.6833 379.79 33.35C381.757 34.9833 382.84 37.2 383.04 40H376.34C376.24 38.9 375.773 38.0333 374.94 37.4C374.14 36.7333 373.057 36.4 371.69 36.4C370.423 36.4 369.44 36.6333 368.74 37.1C368.073 37.5667 367.74 38.2167 367.74 39.05C367.74 39.9833 368.207 40.7 369.14 41.2C370.073 41.6667 371.523 42.15 373.49 42.65C375.49 43.15 377.14 43.6667 378.44 44.2C379.74 44.7333 380.857 45.5667 381.79 46.7C382.757 47.8 383.257 49.2667 383.29 51.1C383.29 52.7 382.84 54.1333 381.94 55.4C381.073 56.6667 379.807 57.6667 378.14 58.4C376.507 59.1 374.59 59.45 372.39 59.45Z" fill="#535153"/>
  </svg>
  